<svg width="212" height="155" viewBox="0 0 212 155" fill="none" xmlns="http://www.w3.org/2000/svg">
<path d="M23.3506 112.731H183.837L212 155H0L23.3506 112.731Z" fill="#E6E6E6"/>
<path d="M67.0282 74.6061C67.0282 74.6061 69.2999 66.2007 74.8012 67.0709C80.3024 67.9411 78.8064 73.1833 83.9356 69.9096C89.0648 66.6358 100.558 61.9807 101.468 71.2218C102.379 80.463 65.1443 96.1274 67.0282 74.6061Z" fill="#FFD200"/>
<path opacity="0.11" d="M67.0282 74.6061C67.0282 74.6061 69.2999 66.2007 74.8012 67.0709C80.3024 67.9411 78.8064 73.1833 83.9356 69.9096C89.0648 66.6358 100.558 61.9807 101.468 71.2218C102.379 80.463 65.1443 96.1274 67.0282 74.6061Z" fill="black"/>
<path d="M87.3551 13.5993C87.3527 14.3315 87.1835 15.056 86.8574 15.7306C86.5312 16.4053 86.0547 17.0166 85.4554 17.5292C85.0905 17.8237 84.8407 18.2108 84.7413 18.6358C84.6419 19.0609 84.6978 19.5024 84.9013 19.8982C86.1124 22.6609 87.735 23.0614 86.4844 25.2992C85.2338 27.537 87.1177 30.0855 89.8089 30.493C92.5002 30.9005 89.3498 34.568 93.3234 35.231C97.2969 35.8941 96.1017 33.8497 99.1492 34.6716C102.197 35.4935 105.11 34.8443 105.933 32.8206C106.756 30.7969 107.215 29.3672 109.89 28.2C112.566 27.0328 108.165 23.4689 109.202 21.2243C110.239 18.9796 109.202 17.2529 106.621 15.4226C104.041 13.5924 106.067 9.31022 103.368 8.99942C100.669 8.68861 98.9038 10.9402 97.2811 9.40691C96.8538 9.03868 96.3361 8.76013 95.7672 8.59235C95.1982 8.42457 94.593 8.37197 93.9973 8.43852C93.4017 8.50507 92.8311 8.68903 92.329 8.97648C91.8269 9.26392 91.4063 9.6473 91.0991 10.0976C90.0701 11.6516 87.3551 11.6101 87.3551 13.5993Z" fill="#449A36"/>
<path opacity="0.11" d="M87.3551 13.5993C87.3527 14.3315 87.1835 15.056 86.8574 15.7306C86.5312 16.4053 86.0547 17.0166 85.4554 17.5292C85.0905 17.8237 84.8407 18.2108 84.7413 18.6358C84.6419 19.0609 84.6978 19.5024 84.9013 19.8982C86.1124 22.6609 87.735 23.0614 86.4844 25.2992C85.2338 27.537 87.1177 30.0855 89.8089 30.493C92.5002 30.9005 89.3498 34.568 93.3234 35.231C97.2969 35.8941 96.1017 33.8497 99.1492 34.6716C102.197 35.4935 105.11 34.8443 105.933 32.8206C106.756 30.7969 107.215 29.3672 109.89 28.2C112.566 27.0328 108.165 23.4689 109.202 21.2243C110.239 18.9796 109.202 17.2529 106.621 15.4226C104.041 13.5924 106.067 9.31022 103.368 8.99942C100.669 8.68861 98.9038 10.9402 97.2811 9.40691C96.8538 9.03868 96.3361 8.76013 95.7672 8.59235C95.1982 8.42457 94.593 8.37197 93.9973 8.43852C93.4017 8.50507 92.8311 8.68903 92.329 8.97648C91.8269 9.26392 91.4063 9.6473 91.0991 10.0976C90.0701 11.6516 87.3551 11.6101 87.3551 13.5993Z" fill="black"/>
<path d="M50.9994 21.4315C50.9994 21.4315 54.0547 14.3521 62.8171 14.4004C71.5796 14.4488 71.6983 21.5834 71.6983 21.5834L69.1654 21.9564C69.1654 21.9564 68.8804 16.9559 63.3079 16.9766C57.7354 16.9974 54.1101 21.9426 54.1101 21.9426L50.9994 21.4315Z" fill="#68FD9B"/>
<path opacity="0.36" d="M50.9994 21.4315C50.9994 21.4315 54.0547 14.3521 62.8171 14.4004C71.5796 14.4488 71.6983 21.5834 71.6983 21.5834L69.1654 21.9564C69.1654 21.9564 68.8804 16.9559 63.3079 16.9766C57.7354 16.9974 54.1101 21.9426 54.1101 21.9426L50.9994 21.4315Z" fill="white"/>
<path d="M40.8676 94.1935L48.2923 117.2C50.2107 123.149 53.8332 128.574 58.8185 132.963C63.8038 137.353 69.9878 140.564 76.7879 142.292C94.602 146.831 113.511 146.96 131.405 142.665L132.196 142.471C139.538 140.708 146.187 137.226 151.425 132.403C156.662 127.58 160.289 121.599 161.911 115.107L167.143 94.1935H40.8676Z" fill="#449A36"/>
<path d="M104.001 105.631C138.869 105.631 167.135 100.498 167.135 94.1659C167.135 87.8338 138.869 82.7007 104.001 82.7007C69.1335 82.7007 40.8676 87.8338 40.8676 94.1659C40.8676 100.498 69.1335 105.631 104.001 105.631Z" fill="#449A36"/>
<path d="M138.647 92.8121C138.647 92.8121 145.89 88.7717 143.397 78.0249C140.903 67.2781 139.779 65.9451 143.903 62.9476C148.027 59.9501 154.834 62.2569 151.217 55.2812C147.6 48.3054 154.114 42.8975 158.46 42.6419C162.805 42.3864 161.966 33.4146 168.196 33.4146C174.425 33.4146 181.225 40.3696 175.431 46.9379C169.636 53.5061 167.903 57.4291 171.956 57.9333C176.008 58.4375 178.913 66.7946 171.956 70.8972C164.998 74.9998 185.721 80.8221 163.7 88.3988C141.679 95.9754 138.647 92.8121 138.647 92.8121Z" fill="#68FD9B"/>
<path d="M77.9278 83.5641C77.9278 83.5641 78.9331 77.6658 90.0701 74.7166C101.207 71.7674 121.993 67.6165 130.882 82.1482C139.771 96.6799 82.313 100.41 77.9278 83.5641Z" fill="#FFD200"/>
<path opacity="0.55" d="M149.602 84.1995C150.085 83.4005 150.472 82.5604 150.758 81.6924C152.176 78.1727 152.023 74.3163 150.331 70.8903L148.835 67.8514L152.397 71.9954C152.577 72.2058 152.822 72.3684 153.102 72.4651C153.382 72.5617 153.688 72.5886 153.985 72.5428C154.282 72.497 154.558 72.3803 154.784 72.2056C155.009 72.031 155.175 71.8052 155.262 71.5533L158.206 62.8993C158.641 61.6279 158.619 60.2708 158.143 59.0108L155.381 51.6828L158.895 56.8006C158.988 56.9386 159.124 57.0507 159.288 57.1241C159.451 57.1975 159.634 57.2292 159.817 57.2155C160 57.2017 160.175 57.1432 160.321 57.0466C160.467 56.95 160.58 56.8192 160.644 56.6694C162.014 53.5269 165.053 46.7721 167.096 44.0992L161.555 64.5776C161.504 64.7662 161.513 64.9636 161.583 65.1477C161.653 65.3318 161.779 65.4955 161.949 65.6207C162.119 65.7458 162.325 65.8275 162.544 65.8568C162.764 65.886 162.988 65.8616 163.193 65.7862L169.526 63.4518L162.489 68.9771C161.034 70.119 159.993 71.6076 159.497 73.2593L158.024 78.1838C157.905 78.5813 157.906 78.999 158.027 79.3962C158.147 79.7935 158.384 80.1567 158.713 80.4508C159.042 80.7448 159.452 80.9596 159.904 81.0743C160.357 81.1889 160.835 81.1996 161.293 81.1053L168.275 79.6618L157.882 85.5532L153.695 91.2858L147.901 92.377L146.452 89.8561L149.602 84.1995Z" fill="white"/>
<path d="M74.8012 92.4184C74.8012 92.4184 67.5665 88.3711 70.0519 77.6312C72.5374 66.8913 73.6614 65.5514 69.5374 62.5539C65.4134 59.5564 58.6061 61.8632 62.2314 54.8875C65.8567 47.9117 59.3344 42.4969 54.9888 42.2482C50.6432 41.9996 51.5139 33.0209 45.2844 33.0209C39.0549 33.0209 32.2239 39.969 38.018 46.5373C43.8121 53.1056 45.5456 57.0286 41.4929 57.5327C37.4402 58.0369 34.5431 66.394 41.4929 70.4897C48.4427 74.5854 27.7358 80.4284 49.7487 87.9774C71.7617 95.5265 74.8012 92.4184 74.8012 92.4184Z" fill="#68FD9B"/>
<path opacity="0.55" d="M63.8462 83.792C63.3676 82.9914 62.9805 82.1516 62.6905 81.2849C61.2767 77.7646 61.4292 73.9095 63.1179 70.4828L64.6219 67.4438L61.0599 71.5879C60.8801 71.8006 60.6356 71.9652 60.3541 72.063C60.0726 72.1608 59.7654 72.1878 59.4672 72.1411C59.169 72.0944 58.8917 71.9757 58.6668 71.7986C58.4419 71.6215 58.2783 71.393 58.1945 71.1389L55.242 62.4918C54.8073 61.2204 54.8294 59.8633 55.3054 58.6033L58.0758 51.2684L54.5534 56.3931C54.4595 56.5309 54.3229 56.6426 54.1593 56.7155C53.9957 56.7884 53.8118 56.8194 53.6289 56.8049C53.4459 56.7905 53.2714 56.7312 53.1255 56.6339C52.9795 56.5366 52.8681 56.4052 52.8041 56.255C51.4426 53.1194 48.3952 46.3646 46.3609 43.6917L51.9017 64.1701C51.9528 64.3587 51.943 64.5561 51.8735 64.7402C51.8039 64.9243 51.6772 65.088 51.5076 65.2132C51.3379 65.3383 51.1318 65.42 50.9122 65.4493C50.6926 65.4785 50.4679 65.4541 50.2632 65.3787L43.9308 63.0443L50.9677 68.5696C52.4229 69.7115 53.463 71.2001 53.9597 72.8518L55.432 77.7763C55.5511 78.1738 55.5503 78.5915 55.4297 78.9887C55.3091 79.386 55.0728 79.7492 54.7438 80.0432C54.4148 80.3373 54.0043 80.5521 53.5521 80.6667C53.0998 80.7814 52.6213 80.7921 52.1629 80.6978L45.1894 79.2474L55.5824 85.1457L59.7697 90.8782L65.5638 91.9695L67.0044 89.4417L63.8462 83.792Z" fill="white"/>
<path d="M74.5637 90.4708C73.3427 87.9734 72.5685 85.3272 72.2682 82.6248C71.8408 79.1714 70.2656 71.505 64.701 71.3669C57.5771 71.1942 62.1127 80.5735 56.1444 76.0565C50.1762 71.5395 50.944 67.7132 43.0285 71.4014C35.113 75.0896 36.989 95.3607 44.4928 98.0336C51.9967 100.706 64.7485 106.004 92.3814 105.811C92.3656 105.776 80.0966 101.473 74.5637 90.4708Z" fill="#68FD9B"/>
<path opacity="0.36" d="M74.5637 90.4708C73.3427 87.9734 72.5685 85.3272 72.2682 82.6248C71.8408 79.1714 70.2656 71.505 64.701 71.3669C57.5771 71.1942 62.1127 80.5735 56.1444 76.0565C50.1762 71.5395 50.944 67.7132 43.0285 71.4014C35.113 75.0896 36.989 95.3607 44.4928 98.0336C51.9967 100.706 64.7485 106.004 92.3814 105.811C92.3656 105.776 80.0966 101.473 74.5637 90.4708Z" fill="white"/>
<path d="M55.3845 101.611C55.3845 101.611 48.8305 95.5265 57.0626 91.5551C65.2947 87.5838 66.6878 91.859 71.073 84.0683C75.4581 76.2775 82.0992 75.3589 88.4078 84.0683C94.7165 92.7776 102.941 73.7082 111.165 79.6342C119.389 85.5601 121.004 84.2202 127.787 80.4008C134.571 76.5814 147.908 81.0086 140.903 91.7071C133.898 102.406 100.637 112.434 55.3845 101.611Z" fill="#00F90A"/>
<path d="M86.1836 105.776C86.1836 105.776 106.495 102.447 108.877 90.9888C111.26 79.5306 121.415 79.3579 123.608 86.1541C125.801 92.9503 127.186 97.9645 132.956 89.2828C138.726 80.6011 148.304 67.3748 152.262 76.2361C156.22 85.0974 141.719 90.823 148.882 92.0386C156.046 93.2542 156.006 79.3648 163.803 81.6164C171.599 83.868 170.349 92.0179 165.979 96.3691C165.979 96.3622 153.243 109.195 86.1836 105.776Z" fill="#68FD9B"/>
<path opacity="0.11" d="M86.1836 105.776C86.1836 105.776 106.495 102.447 108.877 90.9888C111.26 79.5306 121.415 79.3579 123.608 86.1541C125.801 92.9503 127.186 97.9645 132.956 89.2828C138.726 80.6011 148.304 67.3748 152.262 76.2361C156.22 85.0974 141.719 90.823 148.882 92.0386C156.046 93.2542 156.006 79.3648 163.803 81.6164C171.599 83.868 170.349 92.0179 165.979 96.3691C165.979 96.3622 153.243 109.195 86.1836 105.776Z" fill="#0CCC4D"/>
<path d="M69.3395 41.8131L91.3841 61.0414C91.3841 61.0414 101.176 51.0059 92.7218 42.8422C82.0834 32.5927 69.3395 41.8131 69.3395 41.8131Z" fill="#FFD200"/>
<path opacity="0.36" d="M71.7775 43.9404C71.7775 43.9404 76.9542 40.1693 82.7483 41.8131C88.5424 43.4569 96.2046 47.9808 89.1836 59.1351L71.7775 43.9404Z" fill="white"/>
<path opacity="0.57" d="M78.6822 47.2384C79.2289 46.9365 79.1054 45.9105 78.4064 44.9468C77.7073 43.9831 76.6975 43.4466 76.1508 43.7485C75.6041 44.0504 75.7276 45.0764 76.4266 46.0401C77.1256 47.0038 78.1355 47.5403 78.6822 47.2384Z" fill="white"/>
<path opacity="0.57" d="M87.9455 54.5405C88.403 54.1413 88.0246 53.1639 87.1004 52.3575C86.1761 51.551 85.056 51.2208 84.5985 51.62C84.141 52.0192 84.5194 52.9966 85.4436 53.8031C86.3679 54.6095 87.488 54.9397 87.9455 54.5405Z" fill="white"/>
<path opacity="0.57" d="M84.0476 45.6192C84.4691 44.5396 84.3143 43.5168 83.7018 43.3348C83.0894 43.1527 82.2512 43.8804 81.8298 44.96C81.4083 46.0396 81.5632 47.0624 82.1756 47.2444C82.788 47.4264 83.6262 46.6988 84.0476 45.6192Z" fill="white"/>
<path opacity="0.57" d="M87.1357 49.828C88.3952 49.5229 89.2758 48.8345 89.1027 48.2905C88.9296 47.7466 87.7683 47.553 86.5088 47.8582C85.2494 48.1634 84.3687 48.8517 84.5419 49.3957C84.715 49.9396 85.8763 50.1332 87.1357 49.828Z" fill="white"/>
<path d="M144.291 43.595L130.043 15.4157C130.043 15.4157 115.004 22.5158 120.109 34.1536C126.513 48.782 144.291 43.595 144.291 43.595Z" fill="#FFD200"/>
<path opacity="0.36" d="M142.708 40.4801C142.708 40.4801 135.473 42.6143 130.13 38.8087C124.787 35.0031 118.811 27.5024 131.452 18.2268L142.708 40.4801Z" fill="white"/>
<path opacity="0.57" d="M137.994 39.1349C138.715 39.0109 139.067 37.8849 138.781 36.62C138.495 35.3551 137.679 34.4302 136.959 34.5543C136.238 34.6783 135.886 35.8042 136.172 37.0692C136.458 38.3341 137.274 39.2589 137.994 39.1349Z" fill="white"/>
<path opacity="0.57" d="M132.769 27.7891C133.441 27.5302 133.502 26.3642 132.905 25.1848C132.308 24.0055 131.279 23.2593 130.607 23.5182C129.936 23.7771 129.875 24.9431 130.472 26.1224C131.069 27.3018 132.098 28.048 132.769 27.7891Z" fill="white"/>
<path opacity="0.57" d="M132.561 35.8211C133.511 34.8331 133.824 33.6984 133.261 33.2867C132.699 32.875 131.473 33.3421 130.523 34.33C129.574 35.3179 129.26 36.4526 129.823 36.8644C130.386 37.2761 131.612 36.809 132.561 35.8211Z" fill="white"/>
<path opacity="0.57" d="M131.777 30.1688C131.849 29.5311 130.716 28.9112 129.246 28.7843C127.775 28.6574 126.524 29.0715 126.452 29.7092C126.38 30.3469 127.513 30.9668 128.984 31.0937C130.454 31.2206 131.705 30.8066 131.777 30.1688Z" fill="white"/>
<path d="M60.2525 56.9526C62.9411 56.9526 65.1206 55.0509 65.1206 52.705C65.1206 50.3591 62.9411 48.4574 60.2525 48.4574C57.564 48.4574 55.3845 50.3591 55.3845 52.705C55.3845 55.0509 57.564 56.9526 60.2525 56.9526Z" fill="#449A36"/>
<path d="M155.286 38.4081C156.934 38.4081 158.27 37.2423 158.27 35.8043C158.27 34.3662 156.934 33.2005 155.286 33.2005C153.638 33.2005 152.302 34.3662 152.302 35.8043C152.302 37.2423 153.638 38.4081 155.286 38.4081Z" fill="#449A36"/>
<path d="M117.774 4.00588C119.042 4.00588 120.07 3.10914 120.07 2.00294C120.07 0.896748 119.042 0 117.774 0C116.506 0 115.479 0.896748 115.479 2.00294C115.479 3.10914 116.506 4.00588 117.774 4.00588Z" fill="#FFD200"/>
<path d="M107.278 52.2698C108.546 52.2698 109.574 51.3731 109.574 50.2669C109.574 49.1607 108.546 48.264 107.278 48.264C106.011 48.264 104.983 49.1607 104.983 50.2669C104.983 51.3731 106.011 52.2698 107.278 52.2698Z" fill="#68FD9B"/>
<path d="M23.1369 81.3056C24.4047 81.3056 25.4324 80.4088 25.4324 79.3026C25.4324 78.1965 24.4047 77.2997 23.1369 77.2997C21.8692 77.2997 20.8414 78.1965 20.8414 79.3026C20.8414 80.4088 21.8692 81.3056 23.1369 81.3056Z" fill="#68FD9B"/>
<path d="M50.6432 19.5598C50.6432 19.5598 53.6985 12.4804 62.4214 12.5287C71.1442 12.5771 71.3025 19.7117 71.3025 19.7117L68.7696 20.0847C68.7696 20.0847 68.4846 15.0842 62.9201 15.1049C57.3555 15.1257 53.746 20.0709 53.746 20.0709L50.6432 19.5598Z" fill="#449A36"/>
<path d="M137.856 55.6472C137.856 55.6472 135.481 62.92 126.774 63.4794C118.067 64.0388 117.276 56.9388 117.276 56.9388L119.769 56.3931C119.769 56.3931 120.513 61.3521 126.101 60.9446C131.69 60.5371 134.808 55.3502 134.808 55.3502L137.856 55.6472Z" fill="#68FD9B"/>
<path opacity="0.36" d="M137.856 55.6472C137.856 55.6472 135.481 62.92 126.774 63.4794C118.067 64.0388 117.276 56.9388 117.276 56.9388L119.769 56.3931C119.769 56.3931 120.513 61.3521 126.101 60.9446C131.69 60.5371 134.808 55.3502 134.808 55.3502L137.856 55.6472Z" fill="white"/>
<path d="M138.386 57.4844C138.386 57.4844 136.011 64.7571 127.304 65.3235C118.597 65.8898 117.806 58.7829 117.806 58.7829L120.299 58.2303C120.299 58.2303 121.043 63.1962 126.592 62.7818C132.141 62.3674 135.299 57.1943 135.299 57.1943L138.386 57.4844Z" fill="#449A36"/>
<path d="M84.3076 13.5993C84.3093 14.3314 84.1428 15.0564 83.8179 15.7314C83.4929 16.4064 83.0162 17.0177 82.4158 17.5292C82.0509 17.8237 81.8011 18.2108 81.7017 18.6358C81.6023 19.0609 81.6583 19.5024 81.8618 19.8982C83.0807 22.6609 84.6955 23.0614 83.4844 25.2992C82.2734 27.537 84.1098 30.0855 86.8089 30.493C89.5081 30.9005 86.3498 34.568 90.3155 35.231C94.2811 35.8941 93.0938 33.8497 96.1413 34.6716C99.1887 35.4935 102.11 34.8443 102.925 32.8206C103.74 30.7969 104.207 29.3672 106.883 28.2C109.558 27.0328 105.157 23.4689 106.194 21.2243C107.231 18.9796 106.194 17.2529 103.613 15.4226C101.033 13.5924 103.059 9.31022 100.36 8.99942C97.661 8.68861 95.8959 10.9402 94.2653 9.40691C93.838 9.03868 93.3203 8.76013 92.7514 8.59235C92.1824 8.42457 91.5772 8.37197 90.9815 8.43852C90.3858 8.50507 89.8153 8.68903 89.3132 8.97648C88.8111 9.26392 88.3905 9.6473 88.0833 10.0976C87.0385 11.6516 84.2839 11.6101 84.3076 13.5993Z" fill="#449A36"/>
<path d="M87.7034 16.2929C87.6915 17.278 87.2334 18.2191 86.429 18.9105C86.1813 19.1078 86.0118 19.3686 85.945 19.6553C85.8781 19.9421 85.9173 20.2399 86.057 20.506C86.8485 22.3639 87.9646 22.6332 87.1414 24.1458C86.9704 24.5021 86.8946 24.8877 86.9195 25.2734C86.9444 25.6591 87.0695 26.0348 87.2853 26.3721C87.501 26.7094 87.8019 26.9995 88.165 27.2204C88.5282 27.4414 88.9441 27.5874 89.3815 27.6475C91.202 27.9238 89.0728 30.4102 91.7561 30.8384C94.4395 31.2666 93.6242 29.9129 95.7138 30.4654C97.8035 31.018 99.7349 30.5759 100.281 29.2153C100.827 27.8547 101.152 26.8877 102.957 26.1004C104.761 25.313 101.801 22.9095 102.497 21.3969C103.194 19.8844 102.497 18.724 100.756 17.4877C99.0146 16.2514 100.384 13.3437 98.5634 13.1572C96.7429 12.9708 95.5555 14.4626 94.4553 13.4335C94.1673 13.1841 93.8176 12.9956 93.4331 12.8827C93.0486 12.7697 92.6395 12.7353 92.2373 12.782C91.8351 12.8287 91.4505 12.9553 91.1132 13.1521C90.7759 13.3488 90.4949 13.6105 90.2918 13.917C89.5398 14.9806 87.6876 14.953 87.7034 16.2929Z" fill="#68FD9B"/>
<path opacity="0.55" d="M91.2337 19.1039C91.2335 19.3468 91.1782 19.5872 91.0708 19.8112C90.9635 20.0353 90.8063 20.2386 90.6084 20.4093C90.4847 20.5073 90.3998 20.6368 90.3656 20.7795C90.3315 20.9222 90.35 21.0706 90.4184 21.2035C90.83 22.1221 91.3683 22.2603 90.9646 23.0062C90.8773 23.1828 90.8377 23.3746 90.8487 23.5666C90.8598 23.7587 90.9212 23.9461 91.0282 24.1142C91.1353 24.2823 91.2851 24.4268 91.4662 24.5364C91.6473 24.6461 91.8548 24.718 92.0727 24.7467C92.9751 24.8779 91.9223 26.128 93.2442 26.3283C94.5661 26.5286 94.1782 25.8656 95.1914 26.1418C96.2046 26.4181 97.1941 26.1971 97.4632 25.5202C97.5325 25.1902 97.6887 24.8786 97.9195 24.6102C98.1502 24.3417 98.4492 24.1237 98.793 23.9731C99.6874 23.5864 98.2151 22.3915 98.5634 21.6456C98.9117 20.8997 98.5634 20.3195 97.7006 19.7048C96.8379 19.0901 97.5107 17.6328 96.6083 17.5568C95.7059 17.4808 95.1202 18.206 94.574 17.695C94.4317 17.5707 94.2586 17.4766 94.068 17.42C93.8774 17.3634 93.6744 17.3457 93.4748 17.3684C93.2751 17.3911 93.0841 17.4535 92.9165 17.5509C92.7489 17.6482 92.6092 17.7778 92.5081 17.9298C92.1519 18.4478 91.2337 18.434 91.2337 19.1039Z" fill="white"/>
<path opacity="0.19" d="M105.22 137.568C114.899 137.568 122.745 132.546 122.745 126.351C122.745 120.156 114.899 115.135 105.22 115.135C95.5416 115.135 87.6955 120.156 87.6955 126.351C87.6955 132.546 95.5416 137.568 105.22 137.568Z" fill="white"/>
<path d="M144.346 18.434C144.346 18.434 140.262 6.20912 146.943 2.75577C153.623 -0.697576 157.375 5.51845 154.858 9.41382C152.341 13.3092 144.346 18.434 144.346 18.434Z" fill="#68FD9B"/>
<path d="M20.9681 39.9828C20.9681 39.9828 19.5908 35.1481 25.8519 33.4284" stroke="#FFD200" stroke-width="1.33876" stroke-miterlimit="10"/>
<path d="M183.837 73.2938L188.531 69.1498" stroke="#449A36" stroke-width="1.33876" stroke-miterlimit="10"/>
<path d="M175.557 12.5011L180.061 16.8109" stroke="#FFD200" stroke-width="1.33876" stroke-miterlimit="10"/>
<path d="M146.42 13.9861C146.42 13.9861 141.275 20.5405 145.779 27.1088" stroke="#68FD9B" stroke-width="0.446253" stroke-miterlimit="10"/>
<path opacity="0.56" d="M146.42 13.9861C146.42 13.9861 141.275 20.5405 145.779 27.1088" stroke="white" stroke-width="0.446253" stroke-miterlimit="10"/>
</svg>
