<svg xmlns="http://www.w3.org/2000/svg" version="1.1" xmlns:xlink="http://www.w3.org/1999/xlink" xmlns:svgjs="http://svgjs.dev/svgjs" width="1500" height="1500" viewBox="0 0 1500 1500"><g transform="matrix(1,0,0,1,-0.3236151603499593,-0.3236151603499593)"><svg viewBox="0 0 343 343" data-background-color="#ffffff" preserveAspectRatio="xMidYMid meet" height="1500" width="1500" xmlns="http://www.w3.org/2000/svg" xmlns:xlink="http://www.w3.org/1999/xlink"><g id="tight-bounds" transform="matrix(1,0,0,1,0.07400000000001228,0.07400000000001228)"><svg viewBox="0 0 342.8515585177538 342.8515585177538" height="342.8515585177538" width="342.8515585177538"><g><svg></svg></g><g><svg viewBox="0 0 342.8515585177538 342.8515585177538" height="342.8515585177538" width="342.8515585177538"><g><path d="M0 171.426c0-94.676 76.75-171.426 171.426-171.426 94.676 0 171.426 76.75 171.426 171.426 0 94.676-76.75 171.426-171.426 171.426-94.676 0-171.426-76.75-171.426-171.426zM171.426 340.473c93.362 0 169.047-75.685 169.047-169.047 0-93.362-75.685-169.047-169.047-169.047-93.362 0-169.047 75.685-169.047 169.047 0 93.362 75.685 169.047 169.047 169.047z" data-fill-palette-color="tertiary" fill="#155b3c" stroke="transparent"></path><ellipse rx="164.56874808852183" ry="164.56874808852183" cx="171.4257792588769" cy="171.4257792588769" fill="#155b3c" stroke="transparent" stroke-width="0" fill-opacity="1" data-fill-palette-color="tertiary"></ellipse></g><g transform="matrix(1,0,0,1,64.84655864529836,98.65556899960224)"><svg viewBox="0 0 213.15844122715708 145.54042051854933" height="145.54042051854933" width="213.15844122715708"><g><svg viewBox="0 0 213.15844122715714 145.54042051854935" height="145.54042051854933" width="213.15844122715708"><g transform="matrix(1,0,0,1,0,93.67496393333306)"><svg viewBox="0 0 213.15844122715714 51.86545658521628" height="51.86545658521628" width="213.15844122715714"><g id="textblocktransform"><svg viewBox="0 0 213.15844122715714 51.86545658521628" height="51.86545658521628" width="213.15844122715714" id="textblock"><g><svg viewBox="0 0 213.15844122715714 26.380189059434265" height="26.380189059434265" width="213.15844122715714"><g transform="matrix(1,0,0,1,0,0)"><svg width="213.15844122715714" viewBox="2.64 -39.06 319.55 39.550000000000004" height="26.380189059434265" data-palette-color="#ffffff"><path d="M8.4-12.94L8.4-12.94Q8.08-10.4 8.08-8.9 8.08-7.4 8.45-6.13 8.81-4.86 9.5-3.93L9.5-3.93Q10.96-1.95 13.21-1.95L13.21-1.95Q17.5-1.95 17.5-6.69L17.5-6.69Q17.5-10.5 13.09-14.77L13.09-14.77 10.55-17.24Q7.2-20.46 5.98-22.41L5.98-22.41Q3.56-26.27 3.56-30.08L3.56-30.08Q3.56-33.18 5.57-35.28L5.57-35.28Q7.98-37.84 12.52-37.84L12.52-37.84Q14.31-37.84 15.21-37.67L15.21-37.67Q16.89-37.35 17.46-37.35L17.46-37.35Q18.87-37.35 19.65-38.23L19.65-38.23Q19.95-38.55 20.29-39.06L20.29-39.06Q22.07-38.06 22.07-31.71L22.07-31.71Q22.07-27.66 21.26-25.73L21.26-25.73Q21-25.07 20.65-24.9L20.65-24.9Q20.26-28.59 18.26-31.49L18.26-31.49Q15.92-34.91 12.84-34.91L12.84-34.91Q10.21-34.91 9.59-32.5L9.59-32.5Q9.42-31.81 9.42-30.8 9.42-29.79 10.03-28.49 10.64-27.2 11.63-25.92 12.62-24.63 13.92-23.34L13.92-23.34Q17.82-19.34 19.1-17.92 20.39-16.5 21.39-14.99L21.39-14.99Q23.58-11.6 23.58-8.42L23.58-8.42Q23.58-4.59 20.61-2.08L20.61-2.08Q17.53 0.49 12.7 0.49L12.7 0.49Q8.69 0.49 5.81-1.51L5.81-1.51Q2.64-3.71 2.64-7.32L2.64-7.32Q3.59-10.72 6.79-12.3L6.79-12.3Q7.64-12.74 8.4-12.94ZM58.81-33.57L58.81-33.57Q58.81-35.94 57.3-37.35L57.3-37.35 65.96-37.35Q64.48-36.06 63.55-33.74L63.55-33.74Q63.23-32.96 62.91-32.06 62.6-31.15 62.18-29.49L62.18-29.49 61.3-25.68Q60.79-23.49 60.25-20.9L60.25-20.9Q57.44-7.47 57.09-5.9 56.74-4.32 56.74-2.89 56.74-1.46 57.37 0.02L57.37 0.02 48.83 0Q49.41-0.9 49.52-1.7 49.63-2.49 49.63-3.64 49.63-4.79 49.24-7.06 48.85-9.33 48.22-12.23L48.22-12.23 45.11-25.42Q41.4-9.06 40.9-6.69 40.4-4.32 40.4-2.91 40.4-1.49 41.01 0.02L41.01 0.02 32.47 0Q33.27-1.29 33.27-3.47L33.27-3.47Q33.27-7.08 30.05-20.26L30.05-20.26Q26.71-34.08 24.36-37.35L24.36-37.35 33.03-37.35Q32.59-36.28 32.59-34.78 32.59-33.28 32.85-31.49 33.1-29.71 33.53-27.47 33.96-25.22 34.49-22.66L34.49-22.66 37.81-8.06Q38.25-9.94 38.74-12.26L38.74-12.26Q40.11-18.9 40.6-21.56L40.6-21.56 41.43-26.22Q42.16-30.52 42.16-32.03 42.16-33.54 41.98-34.94 41.79-36.33 41.04-37.35L41.04-37.35 50.17-37.35Q49.14-35.42 49.14-32.93L49.14-32.93Q49.14-31.08 50.31-25.42L50.31-25.42 53.15-12.16 54.17-7.74 56.22-17.5Q56.74-20.14 57.2-22.71L57.2-22.71 58.03-27.44Q58.81-32.1 58.81-33.57ZM92.99 0L84.47 0Q84.79-1.54 84.79-2.45 84.79-3.37 84.75-3.83 84.71-4.3 84.65-4.82 84.59-5.35 84.5-5.99 84.42-6.64 84.35-7.5L84.35-7.5Q83.78-13.33 80.37-17.09L80.37-17.09Q78.85-18.75 77.09-19.62 75.34-20.48 74.2-20.48 73.07-20.48 72.46-20.34L72.46-20.34Q71.09-16.24 71.09-11.77L71.09-11.77Q71.09-7.81 71.5-5.86L71.5-5.86Q72.16-2.93 73.53 0.02L73.53 0.02 66.23 0.02Q66.82-1.44 66.82-6.14 66.82-10.84 67.52-14.93 68.23-19.02 69.37-22.22 70.5-25.42 71.91-27.82 73.31-30.22 74.71-32.02 76.12-33.81 77.36-35.1 78.61-36.38 79.44-37.35L79.44-37.35 87.13-37.35Q86.08-36.16 86.08-34.01L86.08-34.01Q86.08-33.03 86.4-30.81L86.4-30.81 87.01-26.37Q90.35-3.32 92.99 0L92.99 0ZM73.46-22.92L73.46-22.92Q74.41-23.29 75.46-23.29 76.51-23.29 77.35-23.14 78.19-23 79.02-22.66L79.02-22.66Q80.81-21.97 82-20.48L82-20.48Q80.81-26.76 80.54-28.15L80.54-28.15 79.68-32.42 78.29-30.76Q75.36-27.25 73.46-22.92ZM106.17-23.19L106.17-23.19Q103.34-23.19 103.34-19.85L103.34-19.85Q103.34-5.98 103.8-3.52L103.8-3.52Q104.07-2.03 104.48-1.29L104.48-1.29 105.22 0 96.55 0Q97.33-1.86 97.47-3.1 97.6-4.35 97.7-5.76L97.7-5.76Q97.89-8.64 97.89-13.5L97.89-13.5Q97.89-19.38 97.7-24.24L97.7-24.24 97.43-30.96Q97.33-33.5 96.99-34.5L96.99-34.5Q96.45-36.08 95.23-37.35L95.23-37.35 108.15-37.35Q114.06-37.35 116.69-36.18L116.69-36.18Q119.47-34.96 119.47-32.01L119.47-32.01Q119.47-29.42 117.55-27.15L117.55-27.15Q115.74-25.05 112.81-23.8L112.81-23.8Q113.18-14.43 118.69-5.81L118.69-5.81Q121.06-2.08 123.53 0L123.53 0 114.37 0Q111.98-3.27 109.95-13.26L109.95-13.26Q109.27-16.72 109.06-19.02 108.85-21.31 108.72-21.79 108.59-22.27 108.29-22.56L108.29-22.56Q107.71-23.19 106.17-23.19ZM111.8-27.55Q112.47-28.27 112.75-29.1 113.03-29.93 113.03-30.7 113.03-31.47 112.82-32.24 112.61-33.01 112-33.59L112-33.59Q110.66-34.91 107.32-34.91L107.32-34.91Q106.07-34.91 105.3-34.81 104.53-34.72 104.09-34.28L104.09-34.28Q103.34-33.54 103.34-30.54L103.34-30.54Q103.34-27.91 103.9-27.17L103.9-27.17Q104.9-25.88 106.93-25.88 108.95-25.88 110.04-26.35 111.13-26.83 111.8-27.55ZM143.79-12.52L143.79-12.52 143.91-21.9Q143.91-31.74 143.18-34.47L143.18-34.47Q142.84-35.79 142.36-36.4 141.88-37.01 141.59-37.35L141.59-37.35 149.6-37.35 149.09-36.67Q147.99-35.06 147.87-33.03 147.74-31.01 147.68-28.93 147.62-26.86 147.57-24.8L147.57-24.8Q147.52-21.36 147.52-17.11L147.52-17.11 147.52-14.14Q147.52-6.25 144.99-2.83L144.99-2.83Q142.47 0.49 136.78 0.49L136.78 0.49Q125.77 0.49 125.82-13.65L125.82-13.65 125.84-31.93Q125.84-35.79 124.48-37.35L124.48-37.35 133.73-37.35Q132.29-35.62 132.29-32.42L132.29-32.42Q132.29-30.57 132.27-28.61L132.27-28.61 132.17-20.8Q132.14-18.87 132.14-16.82L132.14-16.82Q132.14-9.47 132.58-7.51 133.02-5.54 133.66-4.44L133.66-4.44Q135.12-1.95 138-1.95L138-1.95Q142.45-1.95 143.47-8.45L143.47-8.45Q143.79-10.38 143.79-12.52ZM162.83-23.19L162.83-23.19Q160.97-23.19 160.97-19.85L160.97-19.85 160.97-16.77Q160.97-8.28 161.16-6.29 161.34-4.3 161.52-3.52 161.71-2.73 162.02-2.12L162.02-2.12Q162.54-1.12 164.07 0L164.07 0 153.7 0Q154.6-1.81 154.8-3.08 154.99-4.35 155.09-5.76L155.09-5.76Q155.29-8.64 155.29-13.5L155.29-13.5Q155.29-19.38 155.09-24.24L155.09-24.24 154.82-30.96Q154.72-33.5 154.38-34.5L154.38-34.5Q153.84-36.08 152.62-37.35L152.62-37.35 166.27-37.35Q171.79-37.35 174.26-36.18L174.26-36.18Q176.87-34.96 176.87-32.01L176.87-32.01Q176.87-28.39 173.77-26.03L173.77-26.03Q170.1-23.19 162.83-23.19ZM168.92-27.67Q169.69-28.44 170.06-29.31 170.42-30.18 170.42-30.92 170.42-31.67 170.21-32.4 170.01-33.13 169.4-33.69L169.4-33.69Q168.03-34.91 164.71-34.91L164.71-34.91Q162.71-34.91 162.1-34.42L162.1-34.42Q160.97-33.5 160.97-30.79L160.97-30.79Q160.97-27.73 161.46-27.01 161.95-26.29 162.59-26.09 163.22-25.88 164.53-25.88 165.83-25.88 166.99-26.39 168.15-26.9 168.92-27.67ZM205.36 0L196.84 0Q197.15-1.54 197.15-2.45 197.15-3.37 197.12-3.83 197.08-4.3 197.02-4.82 196.96-5.35 196.87-5.99 196.79-6.64 196.71-7.5L196.71-7.5Q196.15-13.33 192.73-17.09L192.73-17.09Q191.22-18.75 189.46-19.62 187.7-20.48 186.57-20.48 185.43-20.48 184.82-20.34L184.82-20.34Q183.46-16.24 183.46-11.77L183.46-11.77Q183.46-7.81 183.87-5.86L183.87-5.86Q184.53-2.93 185.9 0.02L185.9 0.02 178.6 0.02Q179.18-1.44 179.18-6.14 179.18-10.84 179.89-14.93 180.6-19.02 181.74-22.22 182.87-25.42 184.27-27.82 185.68-30.22 187.08-32.02 188.49-33.81 189.73-35.1 190.98-36.38 191.81-37.35L191.81-37.35 199.5-37.35Q198.45-36.16 198.45-34.01L198.45-34.01Q198.45-33.03 198.76-30.81L198.76-30.81 199.37-26.37Q202.72-3.32 205.36 0L205.36 0ZM185.82-22.92L185.82-22.92Q186.78-23.29 187.83-23.29 188.88-23.29 189.72-23.14 190.56-23 191.39-22.66L191.39-22.66Q193.17-21.97 194.37-20.48L194.37-20.48Q193.17-26.76 192.9-28.15L192.9-28.15 192.05-32.42 190.66-30.76Q187.73-27.25 185.82-22.92ZM221.47-13.18L214.09-26.59Q214.05-24.05 214.05-20.8L214.05-20.8Q214.05-16.19 214.22-10.24 214.39-4.3 214.48-3.48 214.58-2.66 214.73-2.05L214.73-2.05Q214.97-1.05 215.49 0L215.49 0 208.94 0Q209.67-1.49 209.83-2.92 209.99-4.35 210.09-5.76L210.09-5.76Q210.29-8.64 210.29-13.5L210.29-13.5Q210.29-19.38 210.09-24.24L210.09-24.24 209.82-30.96Q209.67-34.67 208.65-36.23L208.65-36.23Q208.23-36.82 207.62-37.35L207.62-37.35 215.22-37.35Q216.66-34.03 218.27-30.76L218.27-30.76 221.59-24.27 228.72-11.16Q228.74-12.7 228.74-14.45L228.74-14.45 228.74-18.26Q228.74-30.47 227.25-35.89L227.25-35.89Q226.96-36.89 226.62-37.35L226.62-37.35 233.97-37.38Q232.75-34.94 232.43-23.63L232.43-23.63Q232.38-21.88 232.38-20.26L232.38-20.26 232.4-18.21 232.4-8.25Q232.4-1.93 232.5 0L232.5 0 228.55 0 221.47-13.18ZM264.58 0L256.06 0Q256.38-1.54 256.38-2.45 256.38-3.37 256.34-3.83 256.3-4.3 256.24-4.82 256.18-5.35 256.1-5.99 256.01-6.64 255.94-7.5L255.94-7.5Q255.38-13.33 251.96-17.09L251.96-17.09Q250.44-18.75 248.69-19.62 246.93-20.48 245.79-20.48 244.66-20.48 244.05-20.34L244.05-20.34Q242.68-16.24 242.68-11.77L242.68-11.77Q242.68-7.81 243.1-5.86L243.1-5.86Q243.75-2.93 245.12 0.02L245.12 0.02 237.82 0.02Q238.41-1.44 238.41-6.14 238.41-10.84 239.12-14.93 239.82-19.02 240.96-22.22 242.09-25.42 243.5-27.82 244.9-30.22 246.31-32.02 247.71-33.81 248.95-35.1 250.2-36.38 251.03-37.35L251.03-37.35 258.72-37.35Q257.67-36.16 257.67-34.01L257.67-34.01Q257.67-33.03 257.99-30.81L257.99-30.81 258.6-26.37Q261.94-3.32 264.58 0L264.58 0ZM245.05-22.92L245.05-22.92Q246-23.29 247.05-23.29 248.1-23.29 248.94-23.14 249.78-23 250.61-22.66L250.61-22.66Q252.4-21.97 253.59-20.48L253.59-20.48Q252.4-26.76 252.13-28.15L252.13-28.15 251.27-32.42 249.88-30.76Q246.95-27.25 245.05-22.92ZM280.69-13.18L273.32-26.59Q273.27-24.05 273.27-20.8L273.27-20.8Q273.27-16.19 273.44-10.24 273.61-4.3 273.71-3.48 273.81-2.66 273.95-2.05L273.95-2.05Q274.2-1.05 274.71 0L274.71 0 268.17 0Q268.9-1.49 269.06-2.92 269.22-4.35 269.31-5.76L269.31-5.76Q269.51-8.64 269.51-13.5L269.51-13.5Q269.51-19.38 269.31-24.24L269.31-24.24 269.04-30.96Q268.9-34.67 267.87-36.23L267.87-36.23Q267.46-36.82 266.85-37.35L266.85-37.35 274.44-37.35Q275.88-34.03 277.49-30.76L277.49-30.76 280.81-24.27 287.94-11.16Q287.97-12.7 287.97-14.45L287.97-14.45 287.97-18.26Q287.97-30.47 286.48-35.89L286.48-35.89Q286.18-36.89 285.84-37.35L285.84-37.35 293.19-37.38Q291.97-34.94 291.65-23.63L291.65-23.63Q291.6-21.88 291.6-20.26L291.6-20.26 291.63-18.21 291.63-8.25Q291.63-1.93 291.73 0L291.73 0 287.77 0 280.69-13.18ZM305.08-30.79L305.08-30.79 305.1-6.47Q305.13-5.08 305.42-4.37 305.71-3.66 306.64-3.66L306.64-3.66Q310.99-3.66 313.4-9.18L313.4-9.18Q315.75-14.55 315.75-24.07L315.75-24.07Q315.75-29.08 314.57-31.67L314.57-31.67Q312.99-35.16 309.06-35.16L309.06-35.16Q306.54-35.16 305.97-34.57 305.39-33.98 305.24-33.12 305.08-32.25 305.08-30.79ZM298.29 0L298.29 0Q299.07-1.86 299.21-3.1 299.34-4.35 299.44-5.76L299.44-5.76Q299.63-8.64 299.63-13.5L299.63-13.5Q299.63-19.38 299.44-24.24L299.44-24.24 299.17-30.96Q299.07-33.5 298.73-34.5L298.73-34.5Q298.19-36.08 296.97-37.35L296.97-37.35 310.38-37.35Q318.73-37.35 321.29-30.79L321.29-30.79Q322.19-28.47 322.19-25.17L322.19-25.17Q322.19-6.74 309.69-1.68L309.69-1.68Q305.47 0.02 299.76 0.02L299.76 0.02Q299.39 0.02 299.02 0.02 298.66 0.02 298.29 0Z" opacity="1" transform="matrix(1,0,0,1,0,0)" fill="#ffffff" class="wordmark-text-0" data-fill-palette-color="quaternary" id="text-0"></path></svg></g></svg></g><g transform="matrix(1,0,0,1,72.42693326740252,32.607918571829266)"><svg viewBox="0 0 68.30457469235209 19.257538013387013" height="19.257538013387013" width="68.30457469235209"><g transform="matrix(1,0,0,1,0,0)"><svg width="68.30457469235209" viewBox="119.97 -29.790000000000006 236.04 63.55000000000001" height="19.257538013387013" data-palette-color="#ffffff"><svg></svg><svg></svg><g class="slogan-text-1" data-fill-palette-color="quaternary" id="text-1"><path transform="translate(134.91,0)" d="M17.33-29.79v0c-3.907 0-7.257 1.287-10.05 3.86v0c-3.06 2.833-4.59 6.53-4.59 11.09v0c0 5.273 1.807 9.34 5.42 12.2v0c2.633 2.087 5.66 3.13 9.08 3.13v0c3.84 0 7.143-1.303 9.91-3.91v0c3.093-2.893 4.64-6.637 4.64-11.23v0c0-5.373-1.873-9.457-5.62-12.25v0c-2.54-1.927-5.47-2.89-8.79-2.89zM17.33-0.88v0c-4.72 0-7.747-2.523-9.08-7.57v0c-0.453-1.787-0.68-3.853-0.68-6.2v0c0-7.747 2.343-12.24 7.03-13.48v0c0.813-0.193 1.677-0.29 2.59-0.29v0c6.413 0.067 9.637 4.593 9.67 13.58v0c0 7.093-1.97 11.503-5.91 13.23v0c-1.107 0.487-2.313 0.73-3.62 0.73zM36.38 0h11.96v-1.27h-3.86v-12.16h4.64l7.81 13.43h7.38c0-0.713-0.197-1.12-0.59-1.22v0c-0.16-0.033-0.357-0.05-0.59-0.05v0h-1.85l-7.86-12.6c3.093-0.747 5.21-2.357 6.35-4.83v0c0.42-0.98 0.63-1.973 0.63-2.98v0c0-2.44-1.057-4.393-3.17-5.86v0c-1.727-1.173-3.86-1.76-6.4-1.76v0h-14.45v1.27h3.9v26.76h-3.9zM44.48-28.03h4.89c2.793 0 4.73 1.14 5.81 3.42v0c0.42 0.947 0.63 1.94 0.63 2.98v0c0 2.34-0.813 4.163-2.44 5.47v0c-1.107 0.88-2.393 1.32-3.86 1.32v0h-5.03zM96.73-13.18h-12.16v1.27h4.39v7.61c-1.627 1.953-3.807 3.043-6.54 3.27v0c-0.26 0.033-0.52 0.05-0.78 0.05v0c-6.48-0.06-9.733-4.617-9.76-13.67v0c0-7.747 2.343-12.24 7.03-13.48v0c0.813-0.193 1.673-0.29 2.58-0.29v0c3.353 0 5.78 0.93 7.28 2.79v0c0.973 1.267 1.853 3.25 2.64 5.95v0h1.27l-0.25-9.47-4.25 0.88c-2.047-1.013-4.227-1.52-6.54-1.52v0c-3.907 0-7.26 1.287-10.06 3.86v0c-3.06 2.833-4.59 6.53-4.59 11.09v0c0 5.207 1.857 9.273 5.57 12.2v0c2.7 2.087 5.727 3.13 9.08 3.13v0c2.44 0 4.653-0.537 6.64-1.61v0c0.26-0.133 0.473-0.263 0.64-0.39v0l4.15 1.51v-11.91h3.66zM117.58 0h10.55c0-0.713-0.263-1.12-0.79-1.22v0c-0.16-0.033-0.32-0.05-0.48-0.05v0h-1.66l-11.19-28.03h-1.8l-10.94 28.03h-3.08v1.27h8.69c0-0.713-0.26-1.12-0.78-1.22v0c-0.16-0.033-0.32-0.05-0.48-0.05v0h-2.4l3.66-9.47h10.21l3.66 9.47h-3.17zM111.96-23.97l4.59 11.81h-9.13zM150.29-29.3v1.27h4.15v21.88l-18.55-23.15h-6.79v1.27h3.91v26.76h-3.91v1.27h10.01c0-0.713-0.26-1.12-0.78-1.22v0c-0.16-0.033-0.323-0.05-0.49-0.05v0h-2.88v-22.61l19.19 24.12 2.25-0.48v-27.79h3.9v-1.27zM162.74 0h11.97c0-0.713-0.26-1.12-0.78-1.22v0c-0.167-0.033-0.33-0.05-0.49-0.05v0h-2.59v-26.76h3.86v-1.27h-11.97v1.27h3.91v26.76h-3.91zM203.42-2.25v0c0 1.367 0.193 2.15 0.58 2.35v0c0.233 0.093 0.543 0.14 0.93 0.14v0-9.22h-1.17c-1.66 5.367-4.98 8.067-9.96 8.1v0c-4.233 0-7.113-2.133-8.64-6.4v0c-0.753-2.08-1.13-4.537-1.13-7.37v0c0-6.087 1.677-10.22 5.03-12.4v0c1.467-0.913 3.097-1.37 4.89-1.37v0c4.067 0 7.01 1.92 8.83 5.76v0c0.327 0.687 0.603 1.387 0.83 2.1v0h1.18l-0.15-8.98c-0.72 0-1.16 0.227-1.32 0.68v0c-0.1 0.393-0.15 1.03-0.15 1.91v0c-0.94-0.947-2.55-1.713-4.83-2.3v0c-1.5-0.36-3.03-0.54-4.59-0.54v0c-5.14 0-9.08 1.907-11.82 5.72v0c-1.887 2.7-2.83 5.807-2.83 9.32v0c0 4.267 1.32 7.85 3.96 10.75v0c2.8 2.993 6.443 4.49 10.93 4.49v0c3.293-0.033 6.437-0.947 9.43-2.74z" fill="#ffffff" fill-rule="nonzero" stroke="none" stroke-width="1" stroke-linecap="butt" stroke-linejoin="miter" stroke-miterlimit="10" stroke-dasharray="" stroke-dashoffset="0" font-family="none" font-weight="none" font-size="none" text-anchor="none" style="mix-blend-mode: normal" data-fill-palette-color="quaternary" opacity="1"></path><path transform="translate(118.02,33.27)" d="M10.06-28.03h5.32c2.9 0 4.773 1.303 5.62 3.91v0c0.26 0.847 0.39 1.757 0.39 2.73v0c0 4.233-1.89 6.563-5.67 6.99v0c-0.387 0.027-0.777 0.04-1.17 0.04v0h-4.49zM1.95 0h12.99c0-0.713-0.26-1.12-0.78-1.22v0c-0.16-0.033-0.323-0.05-0.49-0.05v0h-3.61v-11.67h4.3c5.333 0 8.863-1.513 10.59-4.54v0c0.687-1.14 1.03-2.46 1.03-3.96v0c0-3.22-1.4-5.48-4.2-6.78v0c-1.5-0.72-3.29-1.08-5.37-1.08v0h-14.46v1.27h3.91v26.76h-3.91zM29.39 0h11.97v-1.27h-3.86v-12.16h4.64l7.81 13.43h7.37c0-0.713-0.193-1.12-0.58-1.22v0c-0.167-0.033-0.363-0.05-0.59-0.05v0h-1.85l-7.86-12.6c3.087-0.747 5.2-2.357 6.34-4.83v0c0.427-0.98 0.64-1.973 0.64-2.98v0c0-2.44-1.06-4.393-3.18-5.86v0c-1.72-1.173-3.85-1.76-6.39-1.76v0h-14.46v1.27h3.91v26.76h-3.91zM37.5-28.03h4.88c2.8 0 4.737 1.14 5.81 3.42v0c0.427 0.947 0.64 1.94 0.64 2.98v0c0 2.34-0.813 4.163-2.44 5.47v0c-1.107 0.88-2.393 1.32-3.86 1.32v0h-5.03zM74.66-29.79v0c-3.907 0-7.26 1.287-10.06 3.86v0c-3.06 2.833-4.59 6.53-4.59 11.09v0c0 5.273 1.807 9.34 5.42 12.2v0c2.633 2.087 5.66 3.13 9.08 3.13v0c3.84 0 7.143-1.303 9.91-3.91v0c3.093-2.893 4.64-6.637 4.64-11.23v0c0-5.373-1.87-9.457-5.61-12.25v0c-2.54-1.927-5.47-2.89-8.79-2.89zM74.66-0.88v0c-4.72 0-7.747-2.523-9.08-7.57v0c-0.46-1.787-0.69-3.853-0.69-6.2v0c0-7.747 2.343-12.24 7.03-13.48v0c0.813-0.193 1.677-0.29 2.59-0.29v0c6.413 0.067 9.637 4.593 9.67 13.58v0c0 7.093-1.97 11.503-5.91 13.23v0c-1.107 0.487-2.31 0.73-3.61 0.73zM107.32-29.3h-13.62v1.27h3.91v26.76h-3.91v1.27h13.48c4.393 0 8.007-1.367 10.84-4.1v0c2.8-2.7 4.2-6.217 4.2-10.55v0c0-5.6-2.053-9.7-6.16-12.3v0c-2.507-1.567-5.42-2.35-8.74-2.35zM101.81-28.03h5.37c5.14 0 8.347 2.343 9.62 7.03v0c0.487 1.727 0.73 3.78 0.73 6.16v0c0 8.1-2.767 12.573-8.3 13.42v0c-0.62 0.1-1.257 0.15-1.91 0.15v0h-5.51zM125.39-29.3v1.27h3.91v17.04c0.06 7.62 3.85 11.447 11.37 11.48v0c5.733 0 9.2-2.343 10.4-7.03v0c0.36-1.433 0.54-3.063 0.54-4.89v0-16.6h3.91v-1.27h-9.52v1.27h3.9v16.9c0 6.313-2.343 9.713-7.03 10.2v0c-0.387 0.033-0.777 0.05-1.17 0.05v0c-3.973 0-6.48-1.677-7.52-5.03v0c-0.453-1.467-0.68-3.257-0.68-5.37v0-16.75h3.85v-1.27zM182.52-2.25v0c0 1.367 0.197 2.15 0.59 2.35v0c0.227 0.093 0.533 0.14 0.92 0.14v0-9.22h-1.17c-1.66 5.367-4.98 8.067-9.96 8.1v0c-4.233 0-7.113-2.133-8.64-6.4v0c-0.753-2.08-1.13-4.537-1.13-7.37v0c0-6.087 1.677-10.22 5.03-12.4v0c1.467-0.913 3.097-1.37 4.89-1.37v0c4.067 0 7.01 1.92 8.83 5.76v0c0.327 0.687 0.603 1.387 0.83 2.1v0h1.18l-0.15-8.98c-0.713 0-1.153 0.227-1.32 0.68v0c-0.093 0.393-0.14 1.03-0.14 1.91v0c-0.947-0.947-2.56-1.713-4.84-2.3v0c-1.493-0.36-3.023-0.54-4.59-0.54v0c-5.14 0-9.077 1.907-11.81 5.72v0c-1.893 2.7-2.84 5.807-2.84 9.32v0c0 4.267 1.32 7.85 3.96 10.75v0c2.8 2.993 6.447 4.49 10.94 4.49v0c3.287-0.033 6.427-0.947 9.42-2.74zM193.41 0h13.43c0-0.713-0.263-1.12-0.79-1.22v0c-0.16-0.033-0.32-0.05-0.48-0.05v0h-3.32v-26.76h2.83c2.633 0 4.39 1.597 5.27 4.79v0c0 0.127 0.017 0.223 0.05 0.29v0l0.78 3.27h1.37l-0.25-9.62h-24.12l-0.24 9.62h1.37l0.78-3.27c1.04-3.187 2.813-4.88 5.32-5.08v0h2.64v26.76h-4.64zM237.99-7.67v0c0-2.893-1.563-5.22-4.69-6.98v0c-0.62-0.327-2.523-1.19-5.71-2.59v0c-2.9-1.233-4.723-2.5-5.47-3.8v0c-0.393-0.72-0.59-1.487-0.59-2.3v0c0-2.18 1.06-3.693 3.18-4.54v0c0.907-0.36 1.913-0.54 3.02-0.54v0c2.74 0 4.823 0.93 6.25 2.79v0c0.947 1.267 1.403 2.81 1.37 4.63v0h1.47v-8.54c-0.787 0-1.243 0.243-1.37 0.73v0c-0.067 0.227-0.1 0.537-0.1 0.93v0c-2.313-1.273-4.917-1.91-7.81-1.91v0c-3.513 0-6.247 0.977-8.2 2.93v0c-1.307 1.373-1.96 2.97-1.96 4.79v0c0 2.733 1.53 4.963 4.59 6.69v0c0.553 0.293 2.41 1.123 5.57 2.49v0c2.927 1.3 4.783 2.617 5.57 3.95v0c0.42 0.753 0.63 1.57 0.63 2.45v0c0 2.273-1.107 3.917-3.32 4.93v0c-1.04 0.453-2.197 0.68-3.47 0.68v0c-4.98-0.067-7.747-3.11-8.3-9.13v0h-1.46v10.11c0.78 0 1.233-0.23 1.36-0.69v0c0.067-0.26 0.1-0.73 0.1-1.41v0c2.507 1.66 5.357 2.49 8.55 2.49v0c3.74 0 6.637-1.01 8.69-3.03v0c1.4-1.433 2.1-3.143 2.1-5.13z" fill="#ffffff" fill-rule="nonzero" stroke="none" stroke-width="1" stroke-linecap="butt" stroke-linejoin="miter" stroke-miterlimit="10" stroke-dasharray="" stroke-dashoffset="0" font-family="none" font-weight="none" font-size="none" text-anchor="none" style="mix-blend-mode: normal" data-fill-palette-color="quaternary" opacity="1"></path></g></svg></g></svg></g></svg></g></svg></g><g transform="matrix(1,0,0,1,49.25130965429776,0)"><svg viewBox="0 0 114.65582191856161 87.44723442093806" height="87.44723442093806" width="114.65582191856161"><g><svg xmlns="http://www.w3.org/2000/svg" data-name="Layer 1" viewBox="25.777289063713113 80.42 460.42094631733454 351.15999999999997" x="0" y="0" height="87.44723442093806" width="114.65582191856161" class="icon-icon-0" data-fill-palette-color="quaternary" id="icon-0"><path d="M266.94 200.76A6.9 6.9 0 0 1 262.94 203.83 264.3 264.3 0 0 1 294.72 313.35 288.2 288.2 0 0 1 339.23 232.35C361.06 204.73 380.09 191.86 380.89 191.35A7 7 0 1 1 388.69 203C388.51 203.12 370.35 215.47 349.85 241.56 330.97 265.56 306.16 306.56 295.19 365.14A7 7 0 0 1 292.41 369.5 265.5 265.5 0 0 1 276.26 429.12 250.69 250.69 0 0 0 464.8 80.42 250.51 250.51 0 0 0 266.94 200.76" fill="#ffffff" data-fill-palette-color="quaternary"></path><path d="M62 311.53A250.41 250.41 0 0 0 234.7 428.91L140.67 241.39A7 7 0 1 1 153.18 235.11L251.53 431.17C253.03 431.32 254.53 431.46 256.02 431.58 257.41 431.47 258.8 431.34 260.19 431.2A250.69 250.69 0 0 0 47.2 80.42 250.5 250.5 0 0 0 62 311.53" fill="#ffffff" data-fill-palette-color="quaternary"></path></svg></g></svg></g><g></g></svg></g></svg></g></svg></g><defs></defs></svg><rect width="342.8515585177538" height="342.8515585177538" fill="none" stroke="none" visibility="hidden"></rect></g></svg></g></svg>